<?xml version="1.0" encoding="UTF-8"?>
<!-- Generator: Adobe Illustrator 16.0.3, SVG Export Plug-In . SVG Version: 6.00 Build 0)  -->
<!DOCTYPE svg PUBLIC "-//W3C//DTD SVG 1.1//EN" "http://www.w3.org/Graphics/SVG/1.1/DTD/svg11.dtd">
<svg version="1.1" id="Capa_1" xmlns="http://www.w3.org/2000/svg" xmlns:xlink="http://www.w3.org/1999/xlink" x="0px" y="0px" width="500px" height="500px" viewBox="0 0 500 500" enable-background="new 0 0 500 500" xml:space="preserve">
<g>
	<path fill="none" stroke="#FFFFFF" stroke-width="9" stroke-miterlimit="10" d="M479.297,242.713h0.047   C478.518,116.725,376.203,20.59,250.021,20.59c-126.184,0-228.617,96.135-229.439,222.123h0.162   c-0.079,2.415-0.126,4.844-0.126,7.287c0,126.702,102.708,229.41,229.403,229.41c126.694,0,229.405-102.708,229.405-229.41   C479.426,247.557,479.373,245.128,479.297,242.713z M250.021,419.868c-93.818,0-169.865-76.047-169.865-169.868   c0-11.713,1.183-23.137,3.441-34.186C97.85,147.97,151.867,97.941,213.744,84.031c11.69-2.545,23.825-3.893,36.276-3.893   c30.181,0.303,58.11,7.9,82.245,21.213c0.223,0.129,0.453,0.252,0.67,0.374c0.814,0.454,1.625,0.915,2.418,1.384   c0.602,0.346,1.193,0.691,1.773,1.045c0.469,0.281,0.934,0.563,1.402,0.844c0.865,0.525,1.719,1.066,2.576,1.607   c0.217,0.145,0.436,0.273,0.66,0.418c1.012,0.656,2.021,1.318,3.02,1.989c0.098,0.065,0.188,0.122,0.285,0.188   c1.027,0.706,2.057,1.405,3.07,2.134c0.09,0.064,0.191,0.129,0.281,0.193c0.9,0.643,1.791,1.298,2.674,1.954   c0.244,0.181,0.49,0.36,0.734,0.54c0.596,0.447,1.186,0.908,1.781,1.369c0.555,0.426,1.113,0.852,1.664,1.283   c0.115,0.102,0.238,0.202,0.357,0.296c36.178,28.874,59.979,72.646,63.992,123.732c0.166,3.077,0.26,6.177,0.26,9.298   C419.885,343.821,343.834,419.868,250.021,419.868z"/>
	<path fill="#FFFFFF" d="M422.15,250c0,94.643-77.076,171.354-172.152,171.354c-95.075,0-172.146-76.711-172.146-171.354   c0-94.629,77.07-171.346,172.146-171.346C345.074,78.654,422.15,155.371,422.15,250"/>
	<path fill="#FFFFFF" d="M389.717,266.123c2.008-4.757,3.363-10.616,3.363-17.744c0-14.12-6.229-25.703-17.943-33.451   c-9.619-6.436-21.947-9.693-36.629-9.693c-14.65,0-26.932,3.271-36.484,9.65c-0.459,0.303-0.855,0.648-1.295,0.959   c-3.377-3.272-7.74-5.854-13.041-7.489c-5.973-1.881-14.219-2.789-25.188-2.789h-43.328h-22.751H107v37.955h9.543v14.573   c0,6.667,2.437,16.312,13.95,24.341c8.639,6.133,20.112,9.247,34.11,9.247c13.431,0,24.221-3.078,32.242-9.204v8.887h72.98v-25.521   c6.396-0.57,11.723-1.536,16.117-2.905c0.115-0.028,0.211-0.079,0.342-0.122c4.473,13.514,17.27,28.794,52.301,28.794   c4.166,0,8.113-0.202,11.807-0.612l15.73,14.206l39.988-26.553L389.717,266.123z"/>
	<path fill="none" stroke="#FFFFFF" stroke-width="4.646" stroke-miterlimit="10" d="M389.717,266.123   c2.008-4.757,3.363-10.616,3.363-17.744c0-14.12-6.229-25.703-17.943-33.451c-9.619-6.436-21.947-9.693-36.629-9.693   c-14.65,0-26.932,3.271-36.484,9.65c-0.459,0.303-0.855,0.648-1.295,0.959c-3.377-3.272-7.74-5.854-13.041-7.489   c-5.973-1.881-14.219-2.789-25.188-2.789h-43.328h-22.751H107v37.955h9.543v14.573c0,6.667,2.437,16.312,13.95,24.341   c8.639,6.133,20.112,9.247,34.11,9.247c13.431,0,24.221-3.078,32.242-9.204v8.887h72.98v-25.521   c6.396-0.57,11.723-1.536,16.117-2.905c0.115-0.028,0.211-0.079,0.342-0.122c4.473,13.514,17.27,28.794,52.301,28.794   c4.166,0,8.113-0.202,11.807-0.612l15.73,14.206l39.988-26.553L389.717,266.123z"/>
	<path fill="#151830" d="M389.576,266.095c2.012-4.765,3.369-10.617,3.369-17.745c0-14.119-6.223-25.709-17.949-33.457   c-9.619-6.43-21.939-9.688-36.623-9.688c-14.648,0-26.934,3.265-36.48,9.65c-0.461,0.303-0.861,0.648-1.297,0.959   c-3.377-3.287-7.738-5.853-13.047-7.488c-5.971-1.881-14.213-2.797-25.182-2.797h-43.325h-22.758H106.87v37.955h9.539v14.574   c0,6.667,2.437,16.317,13.947,24.347c8.638,6.141,20.112,9.247,34.113,9.247c13.428,0,24.221-3.085,32.243-9.204v8.888h72.98   v-25.529c6.396-0.569,11.719-1.535,16.109-2.897c0.125-0.036,0.223-0.08,0.346-0.123c4.475,13.507,17.271,28.787,52.297,28.787   c4.178,0,8.119-0.202,11.811-0.605l15.734,14.206l39.984-26.56L389.576,266.095z"/>
	<path fill="#F5F4F3" d="M379.184,268.53c3.82-5.354,5.758-12.051,5.758-20.008c0-11.388-4.828-20.347-14.295-26.596   c-8.246-5.507-19.021-8.296-32.049-8.296c-12.971,0-23.73,2.789-31.934,8.281c-2.904,1.917-5.334,4.13-7.365,6.552   c-2.033-5.687-6.826-9.889-13.994-12.087c-5.156-1.637-12.584-2.415-22.715-2.415h-51.57h-6.263h-38.763v21.45h9.539v20.541   c0,3.049-1.017,3.481-1.704,3.763c-0.483,0.194-2.52,0.857-8.999,0.857c-10.051,0-10.051-3.179-10.051-4.533v-20.628h9.906v-21.45   h-49.347v21.45h9.543v22.819c0,6.84,3.543,12.778,10.48,17.622c7.218,5.132,17.085,7.727,29.331,7.727   c12.015,0,21.389-2.667,27.922-7.979c5.647-4.692,8.501-10.538,8.501-17.37v-22.819h3.641v0.281h11.29v24.801h-10.861v22.762   h56.496v-22.762h-12.274v-2.098h4.185c13.305,0,23.1-1.037,29.953-3.171c3.688-1.175,6.588-2.652,8.881-4.325   c0.807,15.41,9.846,32.622,46.254,32.622c5.283,0,10.148-0.36,14.494-1.06l13.824,12.477l25.012-16.621L379.184,268.53z    M327.592,240.378c2.584-2.062,6.592-3.38,11.756-3.38c4.998,0,8.516,1.08,11.24,3.286c2.598,2.069,3.494,4.231,3.494,8.238   c0,0.296-0.006,0.584-0.006,0.864l-7.42-5.643l-16.893,15.085c-0.598-0.346-1.152-0.728-1.676-1.146   c-2.795-2.191-3.984-4.051-3.984-8.541C324.104,243.578,325.945,241.654,327.592,240.378 M254.053,239.08h-4.646v-3.898h8.466   c6.193,0,7.689,0.26,7.895,0.303c0.369,0.094,0.566,0.691,0.631,0.691c0.02,0.08,0.422,1.874-0.492,2.328   C264.994,238.965,262.453,239.08,254.053,239.08"/>
	<path fill="#8C2437" d="M205.531,230.641h-9.91v28.312c0,5.153-2.17,9.528-6.52,13.146c-5.503,4.476-13.644,6.71-24.408,6.71   c-11.136,0-19.854-2.234-26.149-6.71c-5.438-3.799-8.17-8.188-8.17-13.146v-28.312h-9.535v-10.465h38.348v10.465h-9.907v26.12   c0,6.688,5.189,10.019,15.544,10.019c5.412,0,9.121-0.418,11.139-1.275c3.384-1.406,5.07-4.354,5.07-8.83v-26.033h-9.546v-10.465   h34.045V230.641z"/>
	<path fill="#8C2437" d="M221.539,266.722v-35.808h-11.287v-10.738h42.135h5.104h5.1c9.482,0,16.498,0.721,21.068,2.162   c7.527,2.313,11.283,6.825,11.283,13.528c0,7.136-4.346,12.087-13.053,14.833c-6.242,1.96-15.662,2.926-28.297,2.926h-9.68v13.097   h12.273v11.763h-45.501v-11.763H221.539z M243.912,230.914v12.809h10.141c7.701,0,12.598-0.411,14.715-1.219   c2.104-0.821,3.16-2.544,3.16-5.182c0-3.143-1.607-5.117-4.801-5.947c-1.225-0.303-4.316-0.461-9.254-0.461H243.912z"/>
	<path fill="#8C2437" d="M382.539,278.736l-15.021,9.982l-12.664-11.424c-4.691,0.959-10.08,1.441-16.174,1.441   c-27.23,0-40.834-9.823-40.834-29.493c0-9.464,3.943-16.815,11.846-22.034c7.342-4.9,16.992-7.358,28.906-7.358   c11.975,0,21.645,2.458,28.992,7.358c7.889,5.219,11.85,12.57,11.85,22.034c0,8.995-2.783,15.914-8.328,20.772L382.539,278.736z    M346.926,251.586l10.289,7.827c1.582-2.768,2.371-6.148,2.371-10.17c0-5.694-1.961-10.098-5.881-13.219   c-3.697-2.983-8.715-4.49-15.025-4.49c-6.475,0-11.518,1.448-15.113,4.317c-3.863,2.991-5.791,7.46-5.791,13.392   c0,6.177,2.061,10.884,6.201,14.12c3.709,2.998,8.578,4.497,14.621,4.497c1.906,0,3.68-0.151,5.318-0.454l-7.361-6.566   L346.926,251.586z"/>
	<path fill="#151830" d="M250.021,20.59C123.325,20.59,20.617,123.298,20.617,250s102.708,229.41,229.403,229.41   c126.694,0,229.405-102.708,229.405-229.41S376.715,20.59,250.021,20.59 M250.021,419.868   c-93.818,0-169.865-76.047-169.865-169.868c0-93.814,76.047-169.861,169.865-169.861c93.813,0,169.864,76.047,169.864,169.861   C419.885,343.821,343.834,419.868,250.021,419.868"/>
	<path fill="#8C2437" d="M80.138,242.713c4.681-95.184,85.767-163.417,169.883-162.574c92.274,0.916,163.464,69.979,169.767,162.574   h59.557C478.518,116.725,376.203,20.59,250.021,20.59c-126.184,0-228.621,96.135-229.446,222.123H80.138z"/>
	<polygon fill="#FFFFFF" points="68.793,193.176 51.786,187.547 55.102,177.535 58.165,178.544 56.061,184.923 59.557,186.083    61.664,179.705 64.753,180.721 62.645,187.1 69.996,189.543  "/>
	<path fill="#FFFFFF" d="M72.955,158.471c1.171,0.52,2.181,1.232,3.027,2.134c0.854,0.908,1.484,1.938,1.906,3.114   c0.436,1.211,0.627,2.449,0.584,3.704c-0.047,1.261-0.317,2.458-0.833,3.597c-0.443,1.002-1.049,1.896-1.819,2.703   c-0.765,0.807-1.647,1.47-2.631,1.975c-1.272,0.67-2.613,1.016-3.993,1.053c-1.388,0.043-2.731-0.238-4.043-0.822   c-1.172-0.52-2.185-1.232-3.021-2.126c-0.84-0.894-1.471-1.932-1.906-3.128c-0.429-1.176-0.62-2.408-0.577-3.684   c0.044-1.283,0.321-2.494,0.837-3.64c0.508-1.139,1.225-2.147,2.141-3.027c0.922-0.88,1.968-1.557,3.131-2.032   c1.176-0.461,2.379-0.678,3.607-0.648C70.591,157.671,71.791,157.952,72.955,158.471 M74.526,169.629   c0.659-1.485,0.691-2.941,0.083-4.368c-0.609-1.427-1.697-2.494-3.258-3.193c-1.546-0.692-3.07-0.786-4.563-0.288   c-1.492,0.504-2.569,1.484-3.219,2.947c-0.666,1.479-0.688,2.949-0.071,4.397c0.623,1.441,1.708,2.515,3.261,3.207   c1.575,0.706,3.104,0.814,4.56,0.31C72.778,172.144,73.849,171.143,74.526,169.629"/>
	<path fill="#FFFFFF" d="M89.961,146.744l-2.212,3.813l-9.601-0.115l7.236,4.195l-1.917,3.315l-15.5-8.987l2.746-4.743   c1.092-1.882,2.277-3.085,3.553-3.597c1.276-0.512,2.642-0.354,4.112,0.504c1.07,0.621,1.791,1.464,2.173,2.545   c0.379,1.081,0.343,2.17-0.119,3.258L89.961,146.744z M76.498,149.482l0.284-0.496c0.774-1.342,1.146-2.307,1.1-2.912   c-0.04-0.599-0.43-1.117-1.157-1.528c-0.761-0.446-1.438-0.519-2.021-0.253c-0.591,0.274-1.262,1.053-1.997,2.328l-0.288,0.506   L76.498,149.482z"/>
	<path fill="#FFFFFF" d="M91.046,144.755l-12.837-12.786l2.375-3.236l10.541,3.453c0.228,0.064,0.534,0.193,0.919,0.374   c0.4,0.188,0.84,0.403,1.319,0.671c-0.403-0.383-0.761-0.735-1.07-1.061c-0.299-0.324-0.508-0.568-0.634-0.749l-6.411-9.053   l2.335-3.192l16.069,8.375l-2.151,2.934l-9.489-5.326c-0.699-0.396-1.229-0.699-1.571-0.916c-0.353-0.217-0.67-0.426-0.951-0.627   c-0.147-0.115-0.26-0.195-0.335-0.26c-0.072-0.058-0.137-0.115-0.194-0.158c0.497,0.512,0.915,0.959,1.265,1.355   c0.346,0.389,0.595,0.699,0.749,0.922l7.006,9.824l-1.275,1.744l-11.445-3.763c-0.108-0.036-0.383-0.151-0.837-0.346   s-1.109-0.49-1.967-0.88l0.421,0.318c0.674,0.489,1.449,1.146,2.343,1.988l0.029,0.029l7.942,7.438L91.046,144.755z"/>
	<path fill="#FFFFFF" d="M104.91,126.166l-8.523-17.168l2.974-3.215l17.846,7.086l-2.959,3.199l-3.78-1.514l-4.71,5.089l1.946,3.503   L104.91,126.166z M107.652,113.164l-5.618-2.457c-0.162-0.072-0.422-0.217-0.793-0.434c-0.364-0.216-0.8-0.49-1.312-0.836   c0.353,0.477,0.666,0.908,0.937,1.283c0.271,0.382,0.443,0.656,0.53,0.793l2.879,5.297L107.652,113.164z"/>
	<path fill="#FFFFFF" d="M119.689,110.52l-11.728-13.551l3.01-2.602l12.818,2.695c0.36,0.079,0.821,0.223,1.377,0.447   c0.562,0.23,1.189,0.519,1.885,0.871c-0.415-0.338-0.812-0.691-1.183-1.059c-0.374-0.368-0.817-0.844-1.322-1.441l-6.559-7.576   l2.76-2.393l11.728,13.543l-2.844,2.458l-13.11-2.702c-0.364-0.072-0.825-0.217-1.381-0.447c-0.551-0.23-1.182-0.533-1.896-0.887   c0.404,0.324,0.793,0.678,1.168,1.053c0.371,0.367,0.825,0.857,1.344,1.455l6.696,7.741L119.689,110.52z"/>
	<path fill="#FFFFFF" d="M136.894,96.125l-10.098-14.797l4.025-2.753c1.597-1.089,2.926-1.831,3.993-2.234   c1.07-0.403,2.126-0.584,3.175-0.534c1.354,0.059,2.602,0.434,3.755,1.133c1.16,0.691,2.173,1.693,3.056,2.983   c0.901,1.319,1.46,2.638,1.68,3.979c0.216,1.333,0.101,2.638-0.356,3.921c-0.35,0.944-0.854,1.809-1.539,2.588   c-0.678,0.771-1.81,1.701-3.402,2.789l-1.124,0.764L136.894,96.125z M138.241,91.289l1.755-1.189   c1.658-1.131,2.609-2.335,2.851-3.611c0.242-1.268-0.19-2.724-1.312-4.359c-1.113-1.637-2.307-2.566-3.59-2.805   c-1.268-0.244-2.738,0.202-4.393,1.334l-1.759,1.196L138.241,91.289z"/>
	<path fill="#FFFFFF" d="M165.94,68.42c0.594,1.139,0.951,2.32,1.06,3.546c0.107,1.239-0.036,2.45-0.43,3.625   c-0.414,1.226-1.02,2.321-1.834,3.28c-0.818,0.958-1.773,1.729-2.883,2.313c-0.966,0.498-2,0.83-3.1,0.988   c-1.099,0.158-2.198,0.137-3.294-0.065c-1.409-0.273-2.674-0.821-3.787-1.65c-1.11-0.829-1.997-1.874-2.663-3.143   c-0.599-1.153-0.955-2.328-1.06-3.546c-0.104-1.219,0.039-2.43,0.446-3.64c0.386-1.189,0.987-2.278,1.82-3.251   c0.825-0.98,1.798-1.758,2.908-2.342c1.106-0.584,2.292-0.938,3.561-1.053c1.265-0.115,2.505,0,3.708,0.346   c1.207,0.36,2.292,0.938,3.236,1.723C164.581,66.329,165.349,67.288,165.94,68.42 M160.274,78.156   c1.435-0.756,2.354-1.881,2.758-3.38c0.41-1.499,0.216-3.005-0.577-4.519c-0.793-1.507-1.928-2.516-3.413-3.049   c-1.478-0.533-2.933-0.426-4.35,0.316c-1.435,0.758-2.36,1.889-2.771,3.417c-0.41,1.513-0.22,3.02,0.573,4.533   c0.804,1.535,1.939,2.552,3.392,3.063C157.342,79.051,158.805,78.928,160.274,78.156"/>
	<polygon fill="#FFFFFF" points="184.907,54.955 189.686,68.816 186.053,70.07 181.274,56.21 177.134,57.637 176.07,54.559    187.98,50.443 189.048,53.529  "/>
	<path fill="#FFFFFF" d="M194.453,67.072l2.202-19.035l4.249-1.074l11.103,15.662l-4.22,1.066l-2.35-3.338l-6.721,1.723   l-0.274,3.986L194.453,67.072z M203.83,57.658l-3.369-5.117c-0.098-0.145-0.241-0.418-0.433-0.793   c-0.184-0.389-0.4-0.857-0.646-1.42c0.036,0.592,0.065,1.125,0.083,1.594c0.021,0.468,0.025,0.785,0.015,0.951l-0.465,6.018   L203.83,57.658z"/>
	<polygon fill="#FFFFFF" points="215.481,62.113 212.62,44.433 216.4,43.827 218.743,58.293 224.779,57.32 225.302,60.527  "/>
	<polygon fill="#FFFFFF" points="229.327,60.073 227.878,42.213 238.397,41.362 238.657,44.576 231.962,45.125 232.257,48.793    238.956,48.253 239.216,51.496 232.521,52.037 232.884,56.513 239.572,55.973 239.843,59.208  "/>
	<path fill="#FFFFFF" d="M245.18,58.905l0.39-17.918l3.979,0.094l7.698,10.595c0.227,0.303,0.471,0.714,0.727,1.254   c0.264,0.541,0.531,1.176,0.809,1.91c-0.084-0.533-0.137-1.052-0.162-1.585c-0.029-0.519-0.033-1.175-0.016-1.954l0.213-10.025   l3.662,0.087l-0.389,17.903l-3.756-0.079l-7.914-10.79c-0.22-0.31-0.461-0.721-0.725-1.261c-0.256-0.541-0.529-1.183-0.811-1.932   c0.076,0.505,0.134,1.038,0.162,1.563c0.029,0.526,0.036,1.183,0.015,1.982l-0.22,10.228L245.18,58.905z"/>
	<polygon fill="#FFFFFF" points="276.035,46.111 274.256,60.664 270.443,60.195 272.227,45.65 267.877,45.117 268.277,41.881    280.785,43.416 280.389,46.646  "/>
	<path fill="#FFFFFF" d="M302.084,57.031c-0.281,1.247-0.779,2.379-1.496,3.388s-1.607,1.838-2.674,2.487   c-1.1,0.655-2.27,1.096-3.514,1.297c-1.246,0.209-2.477,0.173-3.693-0.108c-1.064-0.23-2.064-0.648-3.01-1.247   c-0.939-0.591-1.758-1.318-2.461-2.184c-0.898-1.125-1.504-2.363-1.82-3.712c-0.307-1.348-0.303-2.718,0.014-4.122   c0.281-1.262,0.775-2.387,1.488-3.389c0.711-0.994,1.605-1.822,2.693-2.479c1.066-0.656,2.23-1.089,3.492-1.298   c1.264-0.209,2.508-0.181,3.732,0.094c1.223,0.281,2.354,0.786,3.395,1.514c1.047,0.728,1.914,1.614,2.605,2.667   c0.689,1.06,1.141,2.191,1.35,3.402C302.404,54.553,302.369,55.777,302.084,57.031 M291.457,60.772   c1.584,0.353,3.02,0.093,4.303-0.786c1.275-0.879,2.107-2.147,2.482-3.82c0.371-1.657,0.162-3.164-0.623-4.533   c-0.785-1.361-1.961-2.22-3.525-2.572c-1.582-0.361-3.02-0.087-4.316,0.799c-1.295,0.895-2.131,2.178-2.506,3.835   c-0.381,1.687-0.184,3.2,0.596,4.526C288.652,59.562,289.842,60.412,291.457,60.772"/>
	<path fill="#FFFFFF" d="M311.705,69.4l13.031-14.056l4.063,1.636l-0.303,19.201l-4.037-1.629l0.072-4.079l-6.432-2.595l-2.58,3.063   L311.705,69.4z M324.83,67.353l0.314-6.119c0.008-0.181,0.055-0.483,0.127-0.908c0.07-0.411,0.176-0.915,0.305-1.513   c-0.309,0.496-0.602,0.937-0.863,1.326c-0.268,0.389-0.447,0.655-0.549,0.777l-3.936,4.577L324.83,67.353z"/>
	<path fill="#FFFFFF" d="M353.178,68.91l-5.221,9.838c-1.143,2.154-2.559,3.452-4.254,3.921c-1.693,0.454-3.672,0.079-5.953-1.132   c-2.309-1.232-3.754-2.666-4.324-4.332c-0.568-1.65-0.285-3.561,0.857-5.708l5.223-9.846l3.365,1.78l-4.947,9.32   c-0.691,1.304-0.924,2.443-0.695,3.401c0.223,0.966,0.912,1.759,2.061,2.364c1.146,0.612,2.199,0.742,3.135,0.389   c0.945-0.354,1.764-1.175,2.455-2.465l4.941-9.319L353.178,68.91z"/>
	<polygon fill="#FFFFFF" points="363.164,79.145 355.096,91.383 351.885,89.271 359.957,77.033 356.303,74.618 358.09,71.9    368.617,78.842 366.818,81.559  "/>
	<path fill="#FFFFFF" d="M381.635,100.5c-0.813,0.98-1.76,1.781-2.84,2.365c-1.094,0.583-2.264,0.93-3.508,1.037   c-1.283,0.108-2.521-0.029-3.729-0.403c-1.201-0.36-2.289-0.944-3.258-1.723c-0.848-0.692-1.561-1.514-2.145-2.458   c-0.58-0.951-0.988-1.968-1.23-3.057c-0.309-1.404-0.303-2.789,0.023-4.129c0.32-1.348,0.932-2.58,1.84-3.697   c0.813-0.995,1.76-1.788,2.834-2.365c1.076-0.584,2.252-0.922,3.52-1.03c1.244-0.115,2.48,0.015,3.705,0.39   c1.227,0.375,2.324,0.959,3.297,1.758c0.975,0.779,1.764,1.73,2.373,2.848c0.611,1.117,1.002,2.292,1.148,3.553   c0.148,1.254,0.047,2.465-0.299,3.647C383.018,98.418,382.445,99.506,381.635,100.5 M370.451,99.124   c1.266,1.023,2.666,1.419,4.199,1.21c1.539-0.215,2.842-0.994,3.924-2.327c1.07-1.312,1.553-2.761,1.459-4.332   c-0.104-1.571-0.771-2.861-2.01-3.87c-1.262-1.023-2.672-1.428-4.234-1.204c-1.551,0.224-2.865,0.995-3.939,2.321   c-1.092,1.348-1.59,2.781-1.48,4.324C368.473,96.789,369.164,98.078,370.451,99.124"/>
	<path fill="#FFFFFF" d="M378.398,109.518l14.811-10.438l2.783,2.898l-5.223,9.795c-0.107,0.201-0.289,0.49-0.529,0.836   c-0.252,0.36-0.545,0.757-0.891,1.182c0.447-0.332,0.861-0.627,1.229-0.872c0.371-0.237,0.652-0.403,0.852-0.489l10.021-4.75   l2.738,2.847l-11.027,14.379l-2.512-2.616l6.887-8.434c0.504-0.619,0.898-1.088,1.168-1.391c0.273-0.303,0.541-0.576,0.793-0.821   c0.133-0.13,0.238-0.224,0.303-0.296c0.076-0.058,0.141-0.107,0.195-0.151c-0.588,0.396-1.111,0.728-1.547,1.002   c-0.447,0.274-0.797,0.469-1.049,0.584l-10.887,5.196l-1.492-1.557l5.68-10.624c0.057-0.101,0.219-0.353,0.486-0.764   c0.273-0.411,0.674-1.009,1.199-1.788l-0.377,0.368c-0.602,0.569-1.385,1.226-2.361,1.96l-0.039,0.021l-8.697,6.545   L378.398,109.518z"/>
	<path fill="#FFFFFF" d="M413.744,137.389c-1.027,0.764-2.145,1.305-3.342,1.594c-1.199,0.302-2.414,0.353-3.643,0.144   c-1.271-0.209-2.443-0.642-3.518-1.298c-1.078-0.656-1.99-1.477-2.734-2.479c-0.652-0.88-1.141-1.846-1.475-2.912   c-0.328-1.06-0.473-2.141-0.436-3.258c0.047-1.449,0.393-2.775,1.033-4c0.643-1.226,1.539-2.264,2.689-3.136   c1.037-0.765,2.146-1.298,3.336-1.593c1.189-0.289,2.408-0.339,3.662-0.13c1.232,0.194,2.404,0.627,3.492,1.298   c1.1,0.655,2.021,1.492,2.771,2.508c0.742,0.994,1.279,2.111,1.6,3.344c0.314,1.24,0.396,2.473,0.234,3.72   c-0.17,1.254-0.559,2.407-1.193,3.467C415.604,135.709,414.773,136.625,413.744,137.389 M403.246,133.303   c0.969,1.305,2.227,2.047,3.77,2.212c1.543,0.166,3.006-0.259,4.383-1.29c1.35-1.009,2.18-2.285,2.471-3.834   c0.289-1.55-0.043-2.97-0.998-4.253c-0.969-1.298-2.234-2.04-3.801-2.206c-1.561-0.165-3.027,0.26-4.395,1.276   c-1.387,1.038-2.219,2.313-2.496,3.835C401.904,130.557,402.262,131.982,403.246,133.303"/>
	<polygon fill="#FFFFFF" points="424.832,144.676 412.262,152.215 410.287,148.921 422.857,141.382 420.602,137.627    423.398,135.947 429.877,146.759 427.088,148.431  "/>
	<path fill="#FFFFFF" d="M422.166,171.279l-1.939-3.965l5.449-7.914l-7.518,3.676l-1.684-3.438l16.088-7.878l2.414,4.931   c0.959,1.953,1.291,3.604,1.014,4.951c-0.285,1.348-1.186,2.393-2.715,3.143c-1.102,0.533-2.209,0.662-3.322,0.382   c-1.109-0.281-1.982-0.923-2.637-1.91L422.166,171.279z M427.391,158.564l0.25,0.512c0.688,1.391,1.281,2.242,1.809,2.537   c0.521,0.296,1.16,0.268,1.916-0.107c0.791-0.383,1.232-0.901,1.338-1.543c0.098-0.642-0.176-1.629-0.828-2.955l-0.25-0.52   L427.391,158.564z"/>
	<polygon fill="#FFFFFF" points="423.621,175.012 440.232,168.287 441.67,171.848 425.066,178.566  "/>
	<polygon fill="#FFFFFF" points="431.244,196.447 426.57,182.148 443.568,186.364 440.992,178.457 443.904,177.506 448.383,191.251    431.412,187.027 434.17,195.489  "/>
	<path fill="#FFFFFF" d="M62.324,280.358l-10.549,1.42c-2.296,0.303-4.094-0.072-5.395-1.132c-1.298-1.045-2.104-2.796-2.439-5.239   c-0.332-2.473-0.012-4.397,0.958-5.76c0.974-1.361,2.605-2.198,4.901-2.508l10.545-1.427l0.49,3.604l-9.979,1.348   c-1.398,0.188-2.403,0.635-3.03,1.341c-0.62,0.714-0.848,1.687-0.682,2.912c0.162,1.239,0.642,2.126,1.435,2.659   c0.804,0.533,1.896,0.714,3.283,0.526l9.979-1.341L62.324,280.358z"/>
	<path fill="#FFFFFF" d="M46.615,289.36l16.606-4.087l0.911,3.684l-7.856,9.723c-0.22,0.281-0.548,0.605-0.979,0.988   c-0.433,0.374-0.959,0.778-1.558,1.21c0.465-0.201,0.938-0.382,1.417-0.533c0.472-0.158,1.073-0.324,1.802-0.504l9.287-2.292   l0.828,3.395l-16.599,4.087l-0.857-3.481l7.982-9.982c0.223-0.274,0.548-0.591,0.987-0.966c0.433-0.375,0.958-0.786,1.578-1.232   c-0.458,0.194-0.926,0.382-1.398,0.533c-0.479,0.166-1.092,0.331-1.834,0.512l-9.481,2.335L46.615,289.36z"/>
	
		<rect x="52.689" y="308.519" transform="matrix(-0.9492 0.3146 -0.3146 -0.9492 216.992 585.6784)" fill="#FFFFFF" width="17.092" height="3.66"/>
	<path fill="#FFFFFF" d="M57.43,324.872l13.442-12.317l1.524,3.74l-8.609,7.114c-0.181,0.145-0.52,0.39-1.013,0.728   c-0.501,0.354-1.066,0.735-1.716,1.161c0.721-0.181,1.362-0.324,1.939-0.433c0.562-0.101,1.045-0.166,1.427-0.202l11.038-0.864   l1.511,3.697l-18.235,0.576L57.43,324.872z"/>
	<polygon fill="#FFFFFF" points="63.192,338.105 78.418,330.328 82.999,339.295 80.253,340.693 77.334,334.984 74.205,336.577    77.117,342.293 74.354,343.706 71.435,337.997 67.618,339.943 70.537,345.659 67.772,347.071  "/>
	<path fill="#FFFFFF" d="M77.381,363.13l-2.217-3.582l4.433-8.029l-6.797,4.202l-1.917-3.113l14.541-8.988l2.754,4.454   c1.092,1.767,1.563,3.302,1.423,4.613c-0.141,1.305-0.9,2.378-2.277,3.229c-0.998,0.62-2.043,0.837-3.121,0.678   c-1.084-0.166-1.971-0.685-2.685-1.563L77.381,363.13z M81.146,350.561l0.292,0.476c0.774,1.247,1.427,2.004,1.953,2.234   c0.519,0.224,1.128,0.137,1.806-0.281c0.721-0.447,1.092-0.98,1.124-1.601c0.036-0.619-0.32-1.527-1.063-2.724l-0.285-0.469   L81.146,350.561z"/>
	<path fill="#FFFFFF" d="M81.298,364.968l3.056,0.274c-0.353,0.584-0.512,1.211-0.465,1.874c0.047,0.678,0.277,1.297,0.699,1.866   c0.505,0.692,1.074,1.125,1.694,1.276c0.623,0.165,1.203,0.043,1.758-0.36c0.652-0.49,0.812-1.629,0.477-3.438   c-0.115-0.591-0.191-1.052-0.245-1.398c-0.267-1.665-0.267-2.955-0.004-3.863c0.256-0.9,0.8-1.657,1.625-2.271   c1.132-0.828,2.396-1.066,3.791-0.713c1.396,0.375,2.617,1.261,3.677,2.703c0.612,0.836,0.994,1.657,1.152,2.479   c0.155,0.822,0.087,1.694-0.19,2.617l-2.948-0.512c0.253-0.512,0.346-1.002,0.292-1.485c-0.054-0.49-0.256-0.973-0.609-1.463   c-0.432-0.577-0.926-0.938-1.48-1.089c-0.552-0.144-1.06-0.043-1.532,0.296c-0.721,0.541-0.864,1.744-0.421,3.604   c0.086,0.36,0.151,0.649,0.198,0.851c0.32,1.564,0.356,2.869,0.097,3.929c-0.259,1.052-0.814,1.896-1.672,2.522   c-1.298,0.958-2.648,1.275-4.065,0.958c-1.416-0.316-2.674-1.225-3.766-2.702c-0.778-1.06-1.254-2.091-1.449-3.106   C80.771,366.792,80.887,365.84,81.298,364.968"/>
	<polygon fill="#FFFFFF" points="89.933,379.859 103.032,368.875 105.382,371.671 92.282,382.663  "/>
	<path fill="#FFFFFF" d="M96.585,387.708l12.238-11.943l3.251,3.345c1.283,1.312,2.205,2.437,2.761,3.373   c0.559,0.938,0.9,1.903,1.026,2.897c0.181,1.276,0.029,2.516-0.436,3.712c-0.472,1.204-1.232,2.328-2.303,3.366   c-1.081,1.06-2.238,1.809-3.456,2.234c-1.222,0.433-2.476,0.54-3.755,0.317c-0.944-0.174-1.835-0.505-2.678-1.017   c-0.844-0.512-1.906-1.42-3.193-2.746l-0.9-0.915L96.585,387.708z M101.342,388.177l1.424,1.456   c1.341,1.362,2.627,2.061,3.863,2.083c1.232,0.014,2.526-0.635,3.881-1.961c1.352-1.312,2.029-2.595,2.051-3.827   c0.011-1.239-0.648-2.552-1.989-3.921l-1.42-1.456L101.342,388.177z"/>
	<path fill="#FFFFFF" d="M109.577,400.826l15.997-8.873l3.196,2.696l-5.982,17.326l-3.179-2.681l1.276-3.676l-5.057-4.274   l-3.254,2.011L109.577,400.826z M122.093,402.88l2.098-5.463c0.061-0.159,0.194-0.418,0.378-0.778   c0.198-0.354,0.437-0.786,0.735-1.283c-0.429,0.346-0.825,0.67-1.182,0.944c-0.354,0.273-0.599,0.454-0.729,0.533l-4.93,2.983   L122.093,402.88z"/>
	<path fill="#FFFFFF" d="M126.594,414.779l9.688-14.091l3.838,2.646c1.517,1.038,2.638,1.968,3.365,2.782   c0.729,0.808,1.247,1.687,1.571,2.631c0.418,1.226,0.512,2.472,0.292,3.733c-0.227,1.269-0.764,2.522-1.614,3.755   c-0.857,1.247-1.842,2.206-2.955,2.869c-1.113,0.648-2.32,0.994-3.618,1.03c-0.959,0.015-1.899-0.144-2.829-0.482   c-0.923-0.339-2.145-1.023-3.657-2.069l-1.067-0.728L126.594,414.779z M131.354,414.304l1.672,1.161   c1.579,1.081,2.977,1.514,4.195,1.297c1.218-0.224,2.36-1.117,3.431-2.674s1.488-2.94,1.261-4.159   c-0.223-1.218-1.128-2.371-2.702-3.452l-1.676-1.146L131.354,414.304z"/>
	<path fill="#FFFFFF" d="M152.49,431.055l7.702-15.273l3.751,1.889c2.004,1.017,3.29,2.141,3.863,3.381   c0.569,1.254,0.454,2.681-0.356,4.281c-0.746,1.478-1.813,2.393-3.204,2.753c-1.384,0.354-2.926,0.101-4.631-0.757l-0.894-0.454   l-2.944,5.831L152.49,431.055z M160.001,424.33l0.472,0.237c0.887,0.454,1.629,0.591,2.217,0.433   c0.587-0.173,1.088-0.663,1.495-1.478c0.383-0.75,0.462-1.405,0.228-1.946c-0.23-0.548-0.789-1.052-1.683-1.491l-0.465-0.245   L160.001,424.33z"/>
	<path fill="#FFFFFF" d="M186.442,436.647c-0.44,1.139-1.074,2.134-1.899,2.984c-0.818,0.851-1.776,1.499-2.876,1.968   c-1.135,0.461-2.303,0.706-3.503,0.721c-1.2,0.014-2.356-0.195-3.471-0.628c-0.969-0.382-1.859-0.915-2.663-1.606   c-0.8-0.692-1.467-1.5-2.004-2.422c-0.691-1.189-1.088-2.443-1.186-3.763c-0.101-1.319,0.098-2.616,0.599-3.892   c0.443-1.14,1.07-2.134,1.885-2.978c0.814-0.843,1.776-1.491,2.897-1.953c1.099-0.468,2.26-0.713,3.484-0.728   c1.219-0.015,2.394,0.201,3.514,0.627c1.106,0.433,2.105,1.074,2.984,1.91c0.883,0.836,1.571,1.795,2.076,2.883   c0.493,1.103,0.76,2.234,0.785,3.409C187.095,434.355,186.886,435.509,186.442,436.647 M175.883,438.658   c1.441,0.563,2.829,0.52,4.162-0.122c1.341-0.642,2.296-1.737,2.895-3.258c0.587-1.507,0.608-2.963,0.061-4.36   c-0.551-1.406-1.531-2.379-2.958-2.934c-1.438-0.563-2.833-0.52-4.188,0.137c-1.355,0.656-2.317,1.744-2.916,3.258   c-0.602,1.535-0.623,2.983-0.083,4.367C173.399,437.108,174.409,438.082,175.883,438.658"/>
	<polygon fill="#FFFFFF" points="189.062,446.27 193.797,429.829 197.308,430.846 193.437,444.295 199.045,445.909 198.187,448.9     "/>
	<polygon fill="#FFFFFF" points="202.937,450.003 206.71,433.325 210.273,434.132 206.504,450.817  "/>
	<polygon fill="#FFFFFF" points="221.362,439.314 219.128,453.131 215.503,452.548 217.741,438.737 213.611,438.067    214.104,435.004 225.986,436.922 225.489,439.992  "/>
	<path fill="#FFFFFF" d="M228.357,454.378l1.405-17.038l10.033,0.836l-0.259,3.07l-6.39-0.526l-0.285,3.496l6.39,0.533l-0.26,3.092   l-6.393-0.533l-0.35,4.281l6.39,0.526l-0.253,3.099L228.357,454.378z M238.646,432.121l-4.004,4l-1.654-0.144l2.652-4.102   L238.646,432.121z"/>
	<path fill="#FFFFFF" d="M258.488,442.803c-0.746-0.663-1.502-1.139-2.285-1.448c-0.781-0.303-1.609-0.447-2.5-0.44   c-1.824,0.008-3.272,0.556-4.35,1.658c-1.074,1.088-1.607,2.559-1.593,4.396c0.011,1.802,0.519,3.222,1.524,4.274   c1.016,1.052,2.389,1.571,4.125,1.557c0.992,0,1.906-0.173,2.754-0.512c0.848-0.332,1.625-0.836,2.35-1.499v3.748   c-0.781,0.461-1.586,0.814-2.439,1.037c-0.854,0.238-1.752,0.354-2.691,0.36c-2.732,0.015-4.967-0.828-6.729-2.501   c-1.759-1.687-2.646-3.834-2.656-6.436c-0.018-2.603,0.844-4.758,2.591-6.458c1.737-1.694,3.997-2.552,6.761-2.581   c0.92,0,1.82,0.102,2.686,0.289c0.867,0.194,1.715,0.482,2.564,0.879L258.488,442.803z"/>
	<path fill="#FFFFFF" d="M264.979,455.128l-1.889-17.003l3.773-0.418l8.621,9.06c0.252,0.253,0.529,0.62,0.848,1.096   c0.316,0.469,0.65,1.045,1.012,1.701c-0.148-0.49-0.268-0.98-0.357-1.471c-0.096-0.497-0.184-1.109-0.266-1.852l-1.053-9.515   l3.467-0.382l1.893,17.003l-3.568,0.389l-8.852-9.218c-0.248-0.253-0.529-0.613-0.84-1.104c-0.313-0.476-0.645-1.052-1.012-1.723   c0.137,0.483,0.256,0.959,0.35,1.456c0.094,0.498,0.184,1.125,0.266,1.889l1.082,9.701L264.979,455.128z"/>
	<polygon fill="#FFFFFF" points="287.549,452.101 284.311,435.314 287.896,434.615 291.135,451.408  "/>
	<path fill="#FFFFFF" d="M307.59,434.305c-0.887-0.446-1.748-0.721-2.576-0.821c-0.836-0.094-1.68-0.021-2.533,0.209   c-1.762,0.476-3.023,1.384-3.785,2.718c-0.76,1.326-0.9,2.883-0.424,4.655c0.465,1.737,1.326,2.991,2.568,3.741   c1.24,0.757,2.707,0.915,4.383,0.469c0.947-0.26,1.799-0.656,2.529-1.204c0.736-0.54,1.363-1.218,1.889-2.054l0.959,3.632   c-0.639,0.649-1.334,1.189-2.098,1.629c-0.768,0.44-1.6,0.778-2.512,1.023c-2.635,0.714-5.014,0.477-7.143-0.706   c-2.127-1.182-3.527-3.027-4.205-5.55c-0.682-2.508-0.391-4.814,0.865-6.897c1.25-2.083,3.207-3.488,5.881-4.209   c0.893-0.245,1.779-0.383,2.666-0.418c0.883-0.029,1.787,0.035,2.703,0.209L307.59,434.305z"/>
	<path fill="#FFFFFF" d="M315.01,445.333l-0.035-18.301l3.902-1.491l12.279,13.615l-3.885,1.484l-2.596-2.897l-6.188,2.364   l0.188,3.819L315.01,445.333z M322.852,435.364l-3.766-4.476c-0.107-0.137-0.277-0.375-0.496-0.714   c-0.221-0.339-0.484-0.757-0.771-1.261c0.098,0.555,0.188,1.045,0.256,1.492c0.072,0.439,0.107,0.742,0.115,0.9l0.234,5.752   L322.852,435.364z"/>
	<path fill="#FFFFFF" d="M344.168,433.138l-8.227-14.992l4.09-2.241c1.607-0.887,2.934-1.463,3.994-1.752   c1.049-0.288,2.068-0.353,3.063-0.216c1.279,0.173,2.43,0.656,3.467,1.42c1.031,0.771,1.898,1.816,2.619,3.121   c0.732,1.333,1.143,2.645,1.23,3.942c0.082,1.283-0.148,2.522-0.707,3.69c-0.41,0.864-0.973,1.636-1.697,2.313   c-0.717,0.67-1.881,1.448-3.488,2.328l-1.139,0.627L344.168,433.138z M345.891,428.676l1.781-0.98   c1.68-0.915,2.695-1.975,3.037-3.156c0.35-1.189,0.068-2.609-0.842-4.268c-0.906-1.65-1.953-2.652-3.143-2.99   c-1.189-0.354-2.627-0.072-4.303,0.85l-1.785,0.988L345.891,428.676z"/>
	<polygon fill="#FFFFFF" points="362.26,422.751 352.717,408.566 361.066,402.945 362.793,405.511 357.475,409.078 359.434,412.005    364.754,408.423 366.486,411.003 361.164,414.578 363.561,418.131 368.877,414.549 370.613,417.122  "/>
	<path fill="#FFFFFF" d="M397.764,397.07l-2.688,2.443l-2.854-0.374c-0.473,0.721-0.881,1.304-1.23,1.751   c-0.342,0.447-0.678,0.814-1.002,1.11c-0.863,0.785-1.869,1.384-3.012,1.802s-2.303,0.605-3.471,0.563   c-1.199-0.036-2.34-0.317-3.416-0.814c-1.082-0.505-2.021-1.197-2.83-2.083c-0.803-0.887-1.4-1.889-1.791-3.006   c-0.396-1.103-0.555-2.271-0.482-3.488c0.059-1.189,0.357-2.328,0.879-3.402c0.52-1.096,1.24-2.04,2.16-2.876   c0.893-0.807,1.902-1.427,3.025-1.845c1.125-0.411,2.289-0.599,3.49-0.548c1.207,0.051,2.35,0.31,3.416,0.814   c1.063,0.482,2.004,1.189,2.824,2.083c0.898,0.994,1.535,2.104,1.904,3.337c0.367,1.232,0.465,2.53,0.279,3.921L397.764,397.07z    M387.682,395.716l1.928,0.26c0.021-0.757-0.109-1.5-0.396-2.242c-0.285-0.735-0.691-1.391-1.215-1.968   c-1.092-1.196-2.385-1.866-3.881-2.004c-1.492-0.137-2.801,0.296-3.926,1.327c-1.145,1.03-1.725,2.299-1.732,3.805   c-0.012,1.492,0.533,2.848,1.625,4.051c1.104,1.211,2.387,1.889,3.85,2.019s2.768-0.317,3.906-1.348   c0.098-0.087,0.223-0.224,0.379-0.404c0.158-0.18,0.334-0.396,0.539-0.648l-3.711-0.454L387.682,395.716z"/>
	<path fill="#FFFFFF" d="M397.715,368.737l7.963,7.057c1.74,1.535,2.631,3.143,2.674,4.814c0.055,1.673-0.742,3.431-2.375,5.276   c-1.652,1.866-3.307,2.883-4.98,3.034c-1.668,0.166-3.373-0.526-5.105-2.068l-7.973-7.057l2.408-2.717l7.539,6.674   c1.057,0.938,2.059,1.405,3.002,1.405c0.951,0.008,1.83-0.446,2.652-1.376c0.826-0.93,1.182-1.874,1.07-2.826   c-0.111-0.958-0.695-1.896-1.744-2.825l-7.543-6.667L397.715,368.737z"/>
	<polygon fill="#FFFFFF" points="414.615,374.813 400.834,364.694 406.791,356.578 409.279,358.402 405.484,363.57 408.313,365.653    412.115,360.485 414.615,362.323 410.824,367.483 414.277,370.028 418.072,364.853 420.572,366.698  "/>
	<path fill="#FFFFFF" d="M430.609,350.913l-2.213,3.597l-9.16-0.367l6.799,4.202l-1.92,3.099l-14.549-8.973l2.746-4.455   c1.092-1.766,2.25-2.876,3.479-3.337c1.232-0.461,2.533-0.267,3.91,0.584c0.998,0.62,1.672,1.448,2.01,2.486   c0.336,1.045,0.271,2.076-0.201,3.106L430.609,350.913z M417.686,353.191l0.289-0.462c0.777-1.269,1.15-2.184,1.121-2.753   c-0.025-0.577-0.375-1.074-1.057-1.499c-0.717-0.447-1.357-0.541-1.928-0.289c-0.57,0.245-1.225,0.966-1.965,2.17l-0.287,0.469   L417.686,353.191z"/>
	<path fill="#FFFFFF" d="M416.24,328.649l2.182,5.218l-0.758,1.478l-2.793-4.007L416.24,328.649z M432.926,346.625l-15.229-7.77   l4.58-8.974l2.746,1.405l-2.916,5.708l3.129,1.594l2.916-5.709l2.764,1.413l-2.912,5.715l3.816,1.946l2.916-5.716l2.768,1.413   L432.926,346.625z"/>
	<polygon fill="#FFFFFF" points="429.672,320.663 442.584,326.055 441.172,329.442 428.26,324.051 426.652,327.914 423.783,326.71    428.414,315.618 431.287,316.814  "/>
	<path fill="#FFFFFF" d="M444.924,320.548l-14.225-11.503l1.301-3.972l18.305-0.944l-1.299,3.95l-3.881,0.187l-2.061,6.293   l3.08,2.271L444.924,320.548z M442.131,308.18l-5.85,0.108c-0.172,0-0.457-0.022-0.865-0.072c-0.402-0.043-0.889-0.108-1.467-0.194   c0.49,0.273,0.938,0.512,1.324,0.749c0.385,0.217,0.645,0.375,0.77,0.462l4.609,3.467L442.131,308.18z"/>
	<path fill="#FFFFFF" d="M454.203,287.559l-0.955,4.108l-8.801,2.58l7.785,1.81l-0.822,3.553l-16.656-3.849l1.182-5.11   c0.461-2.018,1.207-3.445,2.23-4.267c1.014-0.836,2.318-1.06,3.889-0.691c1.15,0.259,2.043,0.828,2.691,1.708   c0.66,0.879,0.924,1.881,0.813,3.005L454.203,287.559z M442.678,293.837l0.123-0.534c0.332-1.441,0.4-2.429,0.188-2.962   c-0.209-0.54-0.699-0.894-1.48-1.074c-0.822-0.188-1.463-0.086-1.918,0.339c-0.469,0.418-0.854,1.313-1.168,2.688l-0.125,0.526   L442.678,293.837z"/>
	<path fill="#FFFFFF" d="M448.963,264.112c1.215,0.159,2.332,0.526,3.355,1.125c1.02,0.598,1.889,1.361,2.598,2.32   c0.729,0.995,1.244,2.062,1.551,3.222c0.299,1.168,0.381,2.343,0.227,3.518c-0.129,1.038-0.439,2.032-0.918,2.977   c-0.48,0.951-1.104,1.787-1.867,2.53c-0.984,0.966-2.105,1.636-3.367,2.062c-1.25,0.41-2.559,0.525-3.912,0.36   c-1.223-0.166-2.34-0.534-3.35-1.117c-1.016-0.592-1.885-1.37-2.602-2.336s-1.229-2.032-1.545-3.214   c-0.307-1.183-0.391-2.372-0.23-3.561c0.154-1.176,0.529-2.3,1.123-3.359c0.605-1.052,1.373-1.96,2.311-2.71   c0.943-0.749,1.982-1.275,3.117-1.586C446.582,264.033,447.756,263.961,448.963,264.112 M453.465,273.879   c0.193-1.535-0.178-2.869-1.125-4.015c-0.951-1.132-2.234-1.81-3.855-2.019c-1.604-0.201-3.02,0.123-4.252,0.987   c-1.227,0.872-1.936,2.062-2.135,3.583c-0.197,1.535,0.182,2.883,1.146,4.021c0.959,1.168,2.246,1.838,3.863,2.054   c1.637,0.209,3.053-0.115,4.252-0.966C452.561,276.661,453.26,275.45,453.465,273.879"/>
</g>
</svg>